<?xml version="1.0" standalone="no"?>
<!DOCTYPE svg PUBLIC "-//W3C//DTD SVG 1.1//EN" "http://www.w3.org/Graphics/SVG/1.1/DTD/svg11.dtd" >
<svg xmlns="http://www.w3.org/2000/svg">
<metadata>Generated by IcoMoon</metadata>
<defs>
<font id="bgs" horiz-adv-x="1024">
<font-face units-per-em="1024" ascent="960" descent="-64" />
<missing-glyph horiz-adv-x="1024" />
<glyph unicode="&#x20;" horiz-adv-x="512" d="" />
<glyph unicode="&#xe900;" glyph-name="ico-view" d="M984.064 464.384c-8.704 9.728-213.504 243.2-472.576 243.2s-463.36-233.472-471.552-243.2l-14.336-16.384 13.824-16.384c8.704-9.728 213.504-243.2 472.064-243.2s463.872 232.96 472.576 243.2l14.336 16.384zM512 253.952c-107.17 0-194.048 86.878-194.048 194.048s86.878 194.048 194.048 194.048c107.17 0 194.048-86.878 194.048-194.048s-86.878-194.048-194.048-194.048zM92.16 448c69.604 71.619 152.314 130.067 244.321 171.543-39.922-42.056-67.781-103.418-67.781-171.287s27.859-129.231 72.765-173.274c-96.933 43.412-179.626 101.679-249.153 172.862zM682.496 274.432c44.945 44.081 72.804 105.443 72.804 173.312s-27.859 129.231-72.765 173.274c96.938-43.4 179.632-101.669 249.152-172.86-69.458-71.766-152.166-130.212-244.166-171.699zM512 537.088c-49.202 0-89.088-39.886-89.088-89.088s39.886-89.088 89.088-89.088c49.202 0 89.088 39.886 89.088 89.088s-39.886 89.088-89.088 89.088z" />
<glyph unicode="&#xe901;" glyph-name="ico-upload" d="M590.848 684.544v-39.424h275.456v-669.696h-708.608v669.696h275.456v39.424h-314.88v-748.544h787.456v748.544h-314.88zM357.376 748.032l-28.672 28.672 183.296 183.296 183.296-183.296-28.672-28.672-134.656 134.656v-598.016h-39.936v598.016l-134.656-134.656z" />
<glyph unicode="&#xe902;" glyph-name="ico-aggiorna" d="M502.272 528.384c49.767 0.001 90.111 40.345 90.111 90.112s-40.345 90.112-90.112 90.112c-49.767 0-90.112-40.345-90.112-90.112 0-0.18 0.001-0.36 0.002-0.54v0.028c0.29-49.547 40.523-89.6 90.111-89.6 0 0 0.001 0 0.001 0zM502.272 505.856c-105.984 0-179.712-57.856-179.712-135.168v-22.528h358.4v22.528c1.536 77.312-72.704 135.168-178.688 135.168zM217.6 740.864c72.887 73.198 173.746 118.493 285.185 118.493 222.257 0 402.432-180.175 402.432-402.432 0-0.258 0-0.516-0.001-0.773l102.4 0.040c0.002 0.586 0.004 1.281 0.004 1.975 0 277.963-225.333 503.296-503.296 503.296-139.982 0-266.617-57.148-357.847-149.385l-95.277 96.722v-302.080h302.080zM786.944 171.52c-72.887-73.198-173.746-118.493-285.185-118.493-222.257 0-402.432 180.175-402.432 402.432 0 0.258 0 0.516 0.001 0.773l-99.328-0.040c0-0.126 0-0.275 0-0.425 0-277.963 225.333-503.296 503.296-503.296 139.214 0 265.227 56.522 356.342 147.87l97.803-97.781v302.080h-302.080z" />
<glyph unicode="&#xe903;" glyph-name="ico-bonifico" d="M804.352 192c0-23.47-19.026-42.496-42.496-42.496h-211.456v-84.48h169.472c0-23.47-19.026-42.496-42.496-42.496h-318.976l-102.4 102.4v220.672l102.4 102.4h153.6v-42.496c0-23.47-19.026-42.496-42.496-42.496h-88.576v-84.48h84.992c70.127 0 126.976 56.849 126.976 126.976v82.944c0 23.47-19.026 42.496-42.496 42.496h-211.456c-0.602 0.031-1.308 0.048-2.017 0.048-11.613 0-22.125-4.715-29.726-12.336l-75.777-77.825c-5.61 3.162-12.305 5.052-19.436 5.12h-169.492c-23.47 0-42.496-19.026-42.496-42.496v-338.944c0-23.47 19.026-42.496 42.496-42.496h169.472c7.151 0.068 13.846 1.958 19.662 5.226l75.57-76.906c7.629-7.551 18.111-12.233 29.685-12.288h338.955c70.127 0 126.976 56.849 126.976 126.976v7.68c50.39 17.3 86.049 64.072 86.528 119.239v42.553h-84.992zM169.472 107.52h-84.992v256h84.992zM1016.32 615.424c0.008 0.874 0.013 1.906 0.013 2.94 0 187.194-151.75 338.944-338.944 338.944s-338.944-151.75-338.944-338.944c0-16.023 1.112-31.787 3.263-47.218l85.813 1.782c-2.454 13.311-3.857 28.627-3.857 44.271 0 141.385 114.615 256 256 256s256-114.615 256-256c0-141.385-114.615-256-256-256-15.644 0-30.96 1.403-45.83 4.091l1.559-85.738c12.632-1.802 27.356-2.913 42.308-3.070 187.381-0.002 339.132 151.749 339.132 338.942zM789.504 508.928c-27.599-26.703-65.253-43.16-106.752-43.16s-79.153 16.457-106.794 43.201c-11.487 11.726-21.097 25.429-28.244 40.526l169.086 0.906v51.2h-183.808c-0.458 4.452-0.719 9.619-0.719 14.848s0.261 10.396 0.771 15.49l183.756-0.642v51.2h-169.472c7.533 16.002 17.143 29.706 28.697 41.497 27.179 27.464 64.913 44.486 106.623 44.486 50.85 0 95.79-25.3 122.921-63.998l36.16 35.359c-5.343 6.967-10.708 13.144-16.42 18.981-37.244 38.439-89.39 62.321-147.115 62.321-113.108 0-204.8-91.692-204.8-204.8s91.692-204.8 204.8-204.8c66.593 0 125.762 31.784 163.166 81.008l-35.472 36.346c-5.142-7.446-10.526-13.968-16.413-19.998z" />
<glyph unicode="&#xe904;" glyph-name="ico-hamburger" d="M75.776 806.4h870.4c0.47 0.010 1.023 0.016 1.578 0.016 41.238 0 74.834-32.72 76.242-73.616l0.004-0.129c-0.288-41.734-34.043-75.488-75.749-75.776h-870.427c-0.458-0.010-0.997-0.015-1.538-0.015-41.958 0-76.005 33.873-76.286 75.765v0.027c1.414 40.854 34.744 73.468 75.751 73.728zM75.776 523.776h870.4c0.458 0.010 0.997 0.015 1.538 0.015 41.958 0 76.005-33.873 76.286-75.765v-0.027c-0.288-41.734-34.043-75.488-75.749-75.776h-870.427c-0.458-0.010-0.997-0.015-1.538-0.015-41.958 0-76.005 33.873-76.286 75.765v0.027c0.288 41.734 34.043 75.488 75.749 75.776zM75.776 239.616h870.4c0.457 0.010 0.996 0.015 1.536 0.015 42.133 0 76.288-34.155 76.288-76.288 0-0.005 0-0.011 0-0.016v0.001c-1.414-40.854-34.744-73.468-75.751-73.728h-870.425c-0.47-0.010-1.023-0.016-1.578-0.016-41.238 0-74.834 32.72-76.242 73.616l-0.004 0.129c0 0.001 0 0.001 0 0.002 0 41.953 33.864 75.996 75.748 76.286z" />
<glyph unicode="&#xe905;" glyph-name="ico-carte" d="M921.6 806.4h-819.2c-56.554 0-102.4-45.846-102.4-102.4v-512c0-56.554 45.846-102.4 102.4-102.4h819.2c56.554 0 102.4 45.846 102.4 102.4v512c0 56.554-45.846 102.4-102.4 102.4zM102.4 192v307.2h824.32v-307.2zM926.72 538.624v62.976h-824.32v102.4h824.32z" />
<glyph unicode="&#xe906;" glyph-name="ico-contanti" d="M972.8 550.4h-51.2v102.4c0 56.554-45.846 102.4-102.4 102.4h-19.456l-88.576 176.64c-8.621 16.831-25.848 28.15-45.718 28.15-6.766 0-13.226-1.312-19.138-3.697l-502.44-201.093h-41.472c-56.554 0-102.4-45.846-102.4-102.4v-614.4c0-56.554 45.846-102.4 102.4-102.4h716.8c56.554 0 102.4 45.846 102.4 102.4v102.4h51.2c28.277 0 51.2 22.923 51.2 51.2v307.2c0 28.277-22.923 51.2-51.2 51.2zM641.024 843.776l44.032-88.576h-265.728zM819.2 38.4h-716.8v614.4h716.8v-102.4h-153.6c-0.088 0.001-0.192 0.001-0.296 0.001-14.065 0-26.806-5.671-36.059-14.852l-153.597-153.597c-9.201-9.255-14.889-22.011-14.889-36.096s5.687-26.842 14.891-36.098l153.598-153.598c9.251-9.433 22.111-15.299 36.34-15.36h153.612zM921.6 243.2h-235.008l-102.4 102.4 102.4 102.4h235.008zM768 345.6c0-28.277-22.923-51.2-51.2-51.2s-51.2 22.923-51.2 51.2c0 28.277 22.923 51.2 51.2 51.2s51.2-22.923 51.2-51.2z" />
<glyph unicode="&#xe907;" glyph-name="ico-filtri" d="M725.504 149.504h-427.008c-164.996 0-298.752 133.756-298.752 298.752s133.756 298.752 298.752 298.752h426.496c164.996 0 298.752-133.756 298.752-298.752s-133.756-298.752-298.752-298.752zM299.008 661.504c-113.331-5.726-203.052-99.009-203.052-213.248s89.721-207.522 202.542-213.227l427.005-0.021c113.331 5.726 203.052 99.009 203.052 213.248s-89.721 207.522-202.542 213.227zM853.504 448c0-70.692-57.308-128-128-128s-128 57.308-128 128c0 70.692 57.308 128 128 128s128-57.308 128-128z" />
<glyph unicode="&#xe908;" glyph-name="ico-gestione-recapiti" d="M1024 448c-0.372 72.151-53.051 131.887-122.034 143.245l-13.646 30.323c15.605 22.876 24.917 51.127 24.917 81.553 0 40.343-16.372 76.863-42.835 103.277-26.749 25.783-63.191 41.665-103.342 41.665-30.964 0-59.722-9.446-83.55-25.613l-28.15 14.67c-12.054 69.171-71.644 121.089-143.36 121.089s-131.306-51.918-143.234-120.219l-30.334-13.671c-23.274 16.407-52.22 26.222-83.457 26.222-80.589 0-145.92-65.331-145.92-145.92 0-0.219 0-0.438 0.001-0.656-0.001-0.156-0.002-0.38-0.002-0.604 0-31.012 9.777-59.74 26.417-83.27l-12.591-28.732c-69.829-11.473-122.508-71.209-122.88-143.32v-0.040c0.372-72.151 53.051-131.887 122.034-143.245l13.646-30.323c-15.605-22.876-24.917-51.127-24.917-81.553 0-40.343 16.372-76.863 42.835-103.277 26.749-25.783 63.191-41.665 103.342-41.665 30.964 0 59.722 9.446 83.55 25.613l29.686-13.134c12.054-69.171 71.644-121.089 143.36-121.089s131.306 51.918 143.234 120.219l30.334 13.671c24.485-19.235 55.75-30.849 89.729-30.849 80.589 0 145.92 65.331 145.92 145.92 0 33.978-11.613 65.244-31.087 90.044l13.039 29.893c67.126 12.767 117.472 70.133 119.292 139.585zM878.592 375.296c-0.051 0-0.111 0-0.171 0-15.091 0-28.034-9.196-33.532-22.289l-29.273-71.407c-2.445-4.757-3.877-10.379-3.877-16.336 0-8.336 2.806-16.017 7.525-22.149 15.961-13.344 26.077-33.366 26.077-55.751 0-40.153-32.551-72.704-72.704-72.704-22.385 0-42.407 10.117-55.744 26.027-6.666 6.664-15.735 10.714-25.751 10.714-5.159 0-10.067-1.075-14.512-3.012l-70.934-29.093c-13.333-5.587-22.528-18.53-22.528-33.621 0-0.060 0-0.12 0-0.18 0-40.144-32.551-72.695-72.704-72.695s-72.704 32.551-72.704 72.704c0 0.051 0 0.111 0 0.171 0 15.091-9.196 28.034-22.289 33.532l-71.407 29.273c-3.6 1.311-7.757 2.069-12.090 2.069-9.584 0-18.301-3.709-24.796-9.769-13.321-12.546-31.348-20.267-51.179-20.267s-37.857 7.722-51.238 20.322c-12.994 13.1-21.048 31.192-21.048 51.165s8.054 38.064 21.091 51.205c6.546 6.569 10.596 15.638 10.596 25.654 0 5.159-1.075 10.067-3.012 14.512l-29.093 70.934c-5.587 13.333-18.53 22.528-33.621 22.528-0.060 0-0.12 0-0.18 0-0.453-0.011-0.997-0.017-1.543-0.017-39.619 0-71.836 31.69-72.687 71.105l-0.001 0.079c0 40.153 32.551 72.704 72.704 72.704 0.051 0 0.111 0 0.171 0 15.091 0 28.034 9.196 33.532 22.289l29.273 71.407c1.865 4.23 2.951 9.162 2.951 14.347 0 9.241-3.448 17.677-9.128 24.091-15.99 13.391-26.107 33.413-26.107 55.798 0 40.153 32.551 72.704 72.704 72.704 22.385 0 42.407-10.117 55.744-26.027 6.666-6.664 15.735-10.714 25.751-10.714 5.159 0 10.067 1.075 14.512 3.012l70.934 29.093c13.333 5.587 22.528 18.53 22.528 33.621 0 0.060 0 0.12 0 0.18 0 40.144 32.551 72.695 72.704 72.695s72.704-32.551 72.704-72.704c0-0.051 0-0.111 0-0.171 0-15.091 9.196-28.034 22.289-33.532l71.407-29.273c3.6-1.311 7.757-2.069 12.090-2.069 9.584 0 18.301 3.709 24.796 9.769 13.321 12.546 31.348 20.267 51.179 20.267s37.857-7.722 51.238-20.322c12.874-13.155 20.841-31.229 20.841-51.165s-7.967-38.010-20.892-51.213c-6.538-6.561-10.588-15.63-10.588-25.646 0-5.159 1.075-10.067 3.012-14.512l29.093-70.934c5.587-13.333 18.53-22.528 33.621-22.528 0.060 0 0.12 0 0.18 0 0.453 0.011 0.997 0.017 1.543 0.017 39.619 0 71.836-31.69 72.687-71.105l0.001-0.079c0-40.153-32.551-72.704-72.704-72.704zM512 630.272c-96.424-5.273-172.615-84.747-172.615-182.016s76.191-176.743 172.148-181.996c20.543-0.020 36.819 16.255 36.819 36.332s-16.275 36.352-36.352 36.352c-0.237-0.002-0.517-0.003-0.798-0.003-60.23 0-109.056 48.826-109.056 109.056s48.826 109.056 109.056 109.056c60.23 0 109.056-48.826 109.056-109.056 0-21.441-6.187-41.437-16.874-58.299-4.161-5.506-6.82-13-6.82-21.115 0-20.077 16.275-36.352 36.352-36.352 13.511 0 25.301 7.371 31.567 18.311 18.346 28.090 29.204 62.274 29.204 98.994 0 100.666-81.606 182.272-182.272 182.272-0.154 0-0.308 0-0.463-0.001z" />
<glyph unicode="&#xe909;" glyph-name="ico-help" d="M512 831.488c211.795 0 383.488-171.693 383.488-383.488s-171.693-383.488-383.488-383.488c-211.795 0-383.488 171.693-383.488 383.488 0.291 211.677 171.81 383.197 383.46 383.488zM512 933.888c-268.349 0-485.888-217.539-485.888-485.888s217.539-485.888 485.888-485.888c268.349 0 485.888 217.539 485.888 485.888s-217.539 485.888-485.888 485.888zM452.608 396.8c-0.008 0.451-0.013 0.984-0.013 1.517 0 10.654 1.881 20.869 5.329 30.331 3.562 8.861 9.135 16.9 16.147 23.411q17.449 16.422 31.785 28.71t25.088 23.040c6.055 6.056 11.46 12.762 16.099 20.005 3.82 6.128 5.917 12.994 5.917 20.351 0 0.032 0 0.065 0 0.097 0.037 0.642 0.058 1.399 0.058 2.161 0 11.664-4.937 22.174-12.835 29.556-7.998 7.037-18.526 11.318-30.055 11.318-0.602 0-1.202-0.012-1.798-0.035-1.19 0.104-2.677 0.161-4.178 0.161-15.451 0-29.475-6.111-39.786-16.048-9.676-10.185-15.937-23.73-16.87-38.718l-94.217 6.991c2.046 39.706 20.185 74.809 47.968 99.19 27.064 21.299 61.43 34.076 98.78 34.076 2.41 0 4.807-0.053 7.191-0.158 17.949-0.062 35.555-2.864 52.13-8.007 15.63-4.804 30.3-12.685 43.017-22.899 12.359-9.973 22.546-22.616 29.665-37.045 7.399-15.363 11.555-32.652 11.555-50.912 0-0.328-0.001-0.656-0.004-0.983 0.010-0.526 0.015-1.205 0.015-1.886 0-10.76-1.312-21.214-3.785-31.21-2.775-10.005-7.158-19.548-12.844-28.153-6.842-10.423-14.605-19.813-23.285-28.266-11.195-11.038-23.048-21.43-35.487-31.105-8.744-6.33-15.118-13.522-19.68-21.848-3.208-6.458-5.075-13.648-5.284-21.252l-0.002-17.99h-90.624zM442.368 279.040c-0.003 0.214-0.005 0.468-0.005 0.721 0 7.671 1.506 14.99 4.239 21.678 5.498 13.436 16.251 24.189 29.707 29.694 6.878 2.833 14.445 4.402 22.378 4.402s15.501-1.569 22.408-4.414c13.427-5.493 24.18-16.247 29.685-29.703 2.833-6.878 4.402-14.445 4.402-22.378s-1.569-15.501-4.414-22.408c-5.493-13.427-16.247-24.18-29.703-29.685-6.878-2.833-14.445-4.402-22.378-4.402s-15.501 1.569-22.408 4.414c-13.427 5.493-24.18 16.247-29.685 29.703-2.731 6.673-4.24 13.999-4.24 21.678 0 0.426 0.005 0.852 0.014 1.276z" />
<glyph unicode="&#xe90a;" glyph-name="ico-home" d="M1011.2 438.784l-192 185.856v193.536h-134.144v-62.976l-141.824 141.312c-8.006 7.754-18.933 12.534-30.976 12.534s-22.97-4.779-30.988-12.545l-468.468-457.717c-7.662-7.762-12.395-18.432-12.395-30.208 0-23.753 19.255-43.008 43.008-43.008 0.038 0 0.075 0 0.113 0h144.378v-361.984h231.424v231.936h185.344v-231.936h231.424v361.984h144.384c0.185-0.003 0.404-0.005 0.623-0.005 23.753 0 43.008 19.255 43.008 43.008 0 11.778-4.734 22.45-12.404 30.217z" />
<glyph unicode="&#xe90b;" glyph-name="ico-mail" d="M967.68 660.48h-628.224c-31.105 0-56.32-25.215-56.32-56.32v-415.232c0-31.105 25.215-56.32 56.32-56.32h628.224c31.105 0 56.32 25.215 56.32 56.32v415.232c0 31.105-25.215 56.32-56.32 56.32zM913.408 592.896l-256-227.328-256 227.328zM350.72 550.4l164.864-146.944-164.864-147.456zM389.12 200.192l176.64 157.696 51.2-48.128c10.122-9.806 23.939-15.85 39.168-15.85s29.046 6.044 39.183 15.865l51.185 48.114 176.64-157.696zM956.416 265.216l-153.6 137.728 153.6 137.728zM204.8 582.144h-167.936c-16.791-2.138-29.64-16.337-29.64-33.536s12.85-31.398 29.473-33.519l168.104-0.017c1.247-0.163 2.688-0.256 4.152-0.256 18.663 0 33.792 15.129 33.792 33.792s-15.129 33.792-33.792 33.792c-1.463 0-2.905-0.093-4.319-0.273zM204.8 424.96h-78.336c-1.247 0.163-2.688 0.256-4.152 0.256-18.663 0-33.792-15.129-33.792-33.792s15.129-33.792 33.792-33.792c1.463 0 2.905 0.093 4.319 0.273l78.168-0.017c1.247-0.163 2.688-0.256 4.152-0.256 18.663 0 33.792 15.129 33.792 33.792s-15.129 33.792-33.792 33.792c-1.463 0-2.905-0.093-4.319-0.273z" />
<glyph unicode="&#xe90c;" glyph-name="ico-movimenti" d="M435.2 456.192l72.192 72.704-117.248 117.248h439.808v102.4h-439.808l117.248 117.248-72.192 72.704-241.152-241.152 241.152-241.152zM588.8 439.808l-72.192-72.704 117.248-117.248h-439.808v-102.4h439.808l-117.248-117.248 72.192-72.704 241.152 241.152-241.152 241.152z" />
<glyph unicode="&#xe90d;" glyph-name="ico-noview" d="M984.064 464.384c-8.704 9.728-213.504 243.2-472.576 243.2s-463.36-233.472-471.552-243.2l-14.336-16.384 13.824-16.384c8.704-9.728 213.504-243.2 472.064-243.2s463.872 232.96 472.576 243.2l14.336 16.384zM512 253.952c-107.17 0-194.048 86.878-194.048 194.048s86.878 194.048 194.048 194.048c107.17 0 194.048-86.878 194.048-194.048s-86.878-194.048-194.048-194.048zM92.16 448c69.604 71.619 152.314 130.067 244.321 171.543-39.922-42.056-67.781-103.418-67.781-171.287s27.859-129.231 72.765-173.274c-96.933 43.412-179.626 101.679-249.153 172.862zM682.496 274.432c44.945 44.081 72.804 105.443 72.804 173.312s-27.859 129.231-72.765 173.274c96.938-43.4 179.632-101.669 249.152-172.86-69.458-71.766-152.166-130.212-244.166-171.699zM512 537.088c-49.202 0-89.088-39.886-89.088-89.088s39.886-89.088 89.088-89.088c49.202 0 89.088 39.886 89.088 89.088s-39.886 89.088-89.088 89.088zM832.8 824l-715.2-715.8 36.2-36.2 715.3 715.8z" />
<glyph unicode="&#xe90e;" glyph-name="ico-add" d="M455.104 907.205v-399.2h-399.2v-112.8h399.2v-399.2h112.8v399.2h399.2v112.8h-399.2v399.2z" />
<glyph unicode="&#xe90f;" glyph-name="ico-cointestatari" horiz-adv-x="1536" d="M611.991 88.395c0 180.736 168.448 307.2 409.6 307.2s409.6-126.464 409.6-307.2v-51.2h-819.2zM722.583 139.595h598.016c-30.72 92.672-144.896 153.6-299.008 153.6s-268.288-60.928-299.008-153.6zM1021.591 446.795c-113.108 0-204.8 91.692-204.8 204.8s91.692 204.8 204.8 204.8c113.108 0 204.8-91.692 204.8-204.8s-91.692-204.8-204.8-204.8zM1021.591 753.995c-56.554 0-102.4-45.846-102.4-102.4s45.846-102.4 102.4-102.4c56.554 0 102.4 45.846 102.4 102.4s-45.846 102.4-102.4 102.4zM1021.591 446.795c-113.108 0-204.8 91.692-204.8 204.8s91.692 204.8 204.8 204.8c113.108 0 204.8-91.692 204.8-204.8s-91.692-204.8-204.8-204.8zM1021.591 753.995c-56.554 0-102.4-45.846-102.4-102.4s45.846-102.4 102.4-102.4c56.554 0 102.4 45.846 102.4 102.4s-45.846 102.4-102.4 102.4zM102.4 89.6c0 180.736 168.448 307.2 409.6 307.2s409.6-126.464 409.6-307.2v-51.2h-819.2zM212.992 140.8h598.016c-30.72 92.672-144.896 153.6-299.008 153.6s-268.288-60.928-299.008-153.6zM512 448c-113.108 0-204.8 91.692-204.8 204.8s91.692 204.8 204.8 204.8c113.108 0 204.8-91.692 204.8-204.8s-91.692-204.8-204.8-204.8zM512 755.2c-56.554 0-102.4-45.846-102.4-102.4s45.846-102.4 102.4-102.4c56.554 0 102.4 45.846 102.4 102.4s-45.846 102.4-102.4 102.4zM512 448c-113.108 0-204.8 91.692-204.8 204.8s91.692 204.8 204.8 204.8c113.108 0 204.8-91.692 204.8-204.8s-91.692-204.8-204.8-204.8zM512 755.2c-56.554 0-102.4-45.846-102.4-102.4s45.846-102.4 102.4-102.4c56.554 0 102.4 45.846 102.4 102.4s-45.846 102.4-102.4 102.4z" />
<glyph unicode="&#xe911;" glyph-name="ico-placeholder" d="M512 964.096c-455.184-0.015-683.984-549.471-363.444-872.575s871.802-98.689 875.444 356.479c0.851 283.786-228.216 514.685-512 516.096z" />
<glyph unicode="&#xe914;" glyph-name="ico-off-star" d="M512 710.144l68.608-139.264 23.040-47.616 51.2-7.68 153.6-22.528-111.104-108.032-37.376-36.864 8.704-51.2 25.6-153.6-182.272 96.768-46.592-24.576-137.728-71.68 26.624 153.6 9.216 51.2-147.968 145.92 153.6 22.016 51.2 7.68 23.552 47.104 68.096 138.752zM512 936.96l-157.696-321.024-354.304-50.688 256-251.392-61.44-353.28 317.44 165.888 315.392-167.936-59.392 354.304 256 249.856-352.768 51.2-159.232 323.072z" />
<glyph unicode="&#xe915;" glyph-name="ico-on-star" d="M512 936.96l-157.696-321.024-354.304-50.688 256-251.392-61.44-353.28 317.44 165.888 315.392-167.936-59.392 354.304 256 249.856-352.768 51.2-159.232 323.072z" />
<glyph unicode="&#xe916;" glyph-name="ico-pdf" d="M894.464 644.608v34.816l-288.768 259.584h-370.688c-0.152 0.001-0.333 0.001-0.513 0.001-48.919 0-88.576-39.657-88.576-88.576 0-0.181 0.001-0.361 0.002-0.541v-804.324c0-48.919 39.657-88.576 88.576-88.576h571.392c48.919 0 88.576 39.657 88.576 88.576v599.040zM815.616 45.568c0-5.373-4.355-9.728-9.728-9.728h-570.88c-5.373 0-9.728 4.355-9.728 9.728v804.352c0.976 4.423 4.862 7.682 9.511 7.682 0.076 0 0.153-0.001 0.229-0.003h371.189v-215.040h209.92zM550.4 535.552c0.184 1.998 0.288 4.322 0.288 6.67 0 16.685-5.285 32.135-14.273 44.768-8.249 10.702-21.34 17.682-36.061 17.682-0.046 0-0.091 0-0.137 0-6.258-0.11-12.228-1.227-17.795-3.193-14.812-5.092-26.758-16.369-32.752-30.748-3.72-9.052-5.802-19.142-5.802-29.717 0-0.84 0.013-1.677 0.039-2.511 2.32-37.557 12.086-72.45 27.834-103.82-20.658-70.111-43.344-130.992-70.448-189.408-64.909-25.114-105.869-55.834-112.013-94.746-0.1-0.921-0.157-1.99-0.157-3.072s0.057-2.151 0.168-3.203c0.127-21.154 10.977-39.876 27.415-50.928 7.827-5.894 17.444-9.356 27.87-9.356 25.6 0 45.056 18.432 65.024 46.080 15.208 21.858 29.712 46.87 42.141 73.058 42.883 21.373 92.269 37.729 143.355 49.666 27.147-21.72 56.256-36.998 88.905-40.248 0.619-0.044 0.708-0.044 0.798-0.044 22.646 0 42.61 11.487 54.382 28.951 8.023 10.348 12.95 23.102 13.457 36.983 0.010 0.402 0.014 0.742 0.014 1.083 0 7.114-1.707 13.828-4.733 19.758-12.808 18.27-34.010 30.232-58.007 30.232-3.701 0-7.335-0.285-10.883-0.833-19.823-0.147-39.465-2.001-58.578-5.384-30.089 36.491-58.358 77.345-81.285 121.422 5.436 29.211 10.033 59.218 11.211 90.1zM487.424 286.208c9.216 24.576 18.432 51.2 26.112 74.24 13.162-20.98 25.645-38.679 38.961-55.695-22.065-4.721-44.081-10.353-65.073-18.545z" />
<glyph unicode="&#xe917;" glyph-name="ico-photo" d="M618.5 920.1c-76.29-0.491-152.644 1.024-228.9-0.8-84.631 0.57-131.369-90.228-151-147.7-59.562-0.351-125.725 6.814-173.1-37.8-49.88-38.523-59.405-103.009-56.3-161.8 0.543-142.039-1.047-284.098 0.9-426.1 6.518-86.896 91.952-151.76 176.9-142.8h669.1c91.64-2.472 168.052 85.053 158.7 175-0.545 150.205 1.049 300.533-0.9 450.7-6.518 86.896-91.952 151.76-176.9 142.8h-59.8c-4.080 81.615-76.96 149.861-158.7 148.5zM599.1 816c66.866 1.078 126.562-52.946 129.9-117.6h48.9c69.491 7.098 139.368-44.263 144.7-113.1 1.595-118.96 0.255-238.011 0.7-357 7.65-71.254-54.835-140.658-129.8-138.7h-547.3c-69.491-7.098-139.468 44.263-144.8 113.1-1.593 112.491-0.256 225.079-0.7 337.6-2.54 46.573 5.196 97.683 46 128.2 38.755 35.342 92.976 29.622 141.7 29.9 16.059 45.528 54.269 117.452 123.5 117 62.381 1.445 124.792 0.211 187.2 0.6zM264.704 597.504c0-29.125-23.611-52.736-52.736-52.736s-52.736 23.611-52.736 52.736c0 29.125 23.611 52.736 52.736 52.736s52.736-23.611 52.736-52.736zM512 595.5c-120.136 0-218.6-98.564-218.6-218.7s98.464-218.6 218.6-218.6c120.136 0 218.6 98.464 218.6 218.6s-98.464 218.7-218.6 218.7zM512 493.1c64.795 0 116.2-51.505 116.2-116.3s-51.405-116.2-116.2-116.2c-64.795 0-116.2 51.405-116.2 116.2s51.405 116.3 116.2 116.3z" />
<glyph unicode="&#xe918;" glyph-name="ico-print" d="M896 526.080h-85.333v305.92c0 47.128-38.205 85.333-85.333 85.333h-426.667c-47.128 0-85.333-38.205-85.333-85.333v-305.92h-170.667v-354.56c5.958-84.425 75.909-150.657 161.329-150.657 4.337 0 8.635 0.171 12.886 0.506l596.771-0.036c3.541-0.286 7.665-0.449 11.827-0.449 82.8 0 150.549 64.441 155.829 145.907l0.024 359.288zM298.667 836.267h426.667v-310.187h-45.227l-24.747-23.040-75.093-69.547h-143.787l-52.48 61.867-25.6 31.147h-59.733zM896 167.253c0-33.28-36.693-60.587-81.92-60.587h-597.333c-49.067 0-88.747 29.013-88.747 65.28v268.8h191.573l76.8-93.013h217.6l99.84 93.013h182.187zM384 750.080h256v-85.333h-256v85.333zM384 622.080h256v-85.333h-256v85.333z" />
<glyph unicode="&#xe919;" glyph-name="ico-profile" d="M512 448c-113.108 0-204.8 91.692-204.8 204.8s91.692 204.8 204.8 204.8c113.108 0 204.8-91.692 204.8-204.8s-91.692-204.8-204.8-204.8zM512 755.2c-56.554 0-102.4-45.846-102.4-102.4s45.846-102.4 102.4-102.4c56.554 0 102.4 45.846 102.4 102.4s-45.846 102.4-102.4 102.4zM512 448c-113.108 0-204.8 91.692-204.8 204.8s91.692 204.8 204.8 204.8c113.108 0 204.8-91.692 204.8-204.8s-91.692-204.8-204.8-204.8zM512 755.2c-56.554 0-102.4-45.846-102.4-102.4s45.846-102.4 102.4-102.4c56.554 0 102.4 45.846 102.4 102.4s-45.846 102.4-102.4 102.4zM102.4 89.6c0 180.736 168.448 307.2 409.6 307.2s409.6-126.464 409.6-307.2v-51.2h-819.2zM212.992 140.8h598.016c-30.72 92.672-144.896 153.6-299.008 153.6s-268.288-60.928-299.008-153.6z" />
<glyph unicode="&#xe91a;" glyph-name="ico-question" d="M512 831.488h4.096c211.308-1.018 382.212-172.55 382.212-384 0-212.080-171.925-384.004-384.004-384.004-0.63 0-1.26 0.002-1.889 0.005h-3.999c-211.308 1.018-382.212 172.55-382.212 384 0 212.080 171.925 384.004 384.004 384.004 0.63 0 1.26-0.002 1.889-0.005zM512 933.888c-0.684 0.003-1.494 0.005-2.304 0.005-268.634 0-486.405-217.771-486.405-486.405 0-267.824 216.46-485.092 483.977-486.4h4.733c0.684-0.003 1.494-0.005 2.304-0.005 268.634 0 486.405 217.771 486.405 486.405 0 267.824-216.46 485.092-483.977 486.4zM458.24 364.544c-0.308 2.771-0.483 5.984-0.483 9.238 0 8.187 1.111 16.114 3.19 23.64 3.823 8.685 9.553 16.549 16.682 22.871q17.476 16.443 31.812 28.731t25.088 23.040c6.045 5.921 11.444 12.458 16.108 19.524 4 6.082 6.272 12.968 6.419 20.374 0.055 0.823 0.086 1.74 0.086 2.664 0 11.429-4.74 21.751-12.361 29.106-8.065 7.325-18.809 11.802-30.598 11.802-0.407 0-0.813-0.005-1.217-0.016-1.366 0.127-3.025 0.199-4.701 0.199-15.21 0-29.037-5.922-39.301-15.585-8.899-10.633-14.321-24.495-14.321-39.622 0-0.461 0.005-0.92 0.015-1.379l-96.257 8.26c3.018 39.929 22.207 74.858 50.962 98.625 27.035 21.071 61.179 33.669 98.265 33.669 2.799 0 5.581-0.072 8.345-0.214 17.975-0.239 35.552-3.216 52.081-8.528 15.46-5.012 29.947-13.050 42.475-23.378 12.239-10.163 22.268-22.977 29.188-37.554 7.085-15.102 11.054-32.020 11.054-49.864 0-0.704-0.006-1.407-0.018-2.108-0.004-11.359-1.498-22.472-4.298-33.054-2.758-9.992-7.141-19.534-12.827-28.139-6.856-10.214-14.614-19.435-23.264-27.734-11.291-10.816-23.309-21.048-35.908-30.554-9.059-6.344-15.604-13.544-20.305-21.918-3.207-6.447-5.074-13.637-5.283-21.241l-0.002-17.99h-92.16zM446.464 246.784c0.073 7.97 1.761 15.527 4.752 22.386 5.602 13.242 16.331 23.804 29.7 29.196 6.88 2.832 14.447 4.401 22.38 4.401s15.501-1.569 22.408-4.414c13.22-5.603 23.782-16.332 29.174-29.701 2.832-6.88 4.401-14.447 4.401-22.38s-1.569-15.501-4.414-22.408c-5.603-13.22-16.332-23.782-29.701-29.174-6.88-2.832-14.447-4.401-22.38-4.401s-15.501 1.569-22.408 4.414c-13.22 5.603-23.782 16.332-29.174 29.701-2.911 6.698-4.592 14.068-4.737 21.814z" />
<glyph unicode="&#xe91b;" glyph-name="ico-reload" d="M512 960c-0.106 0-0.232 0-0.358 0-141.197 0-268.951-57.558-361.077-150.491l-99.364 99.291v-307.2h307.2l-135.68 135.68c74.088 73.913 176.346 119.618 289.279 119.618 226.216 0 409.6-183.384 409.6-409.6s-183.384-409.6-409.6-409.6c-226.216 0-409.6 183.384-409.6 409.6 0 0.247 0 0.494 0.001 0.74l-102.4-0.038c0-282.77 229.23-512 512-512s512 229.23 512 512c0 282.77-229.23 512-512 512z" />
<glyph unicode="&#xe91c;" glyph-name="ico-rubrica" d="M972.8 883.2h-358.4c-0.088 0.001-0.192 0.001-0.296 0.001-14.065 0-26.806-5.671-36.059-14.852l-66.045-66.557-66.048 66.56c-9.25 9.177-21.991 14.849-36.056 14.849-0.104 0-0.208 0-0.312-0.001h-358.384c-28.277 0-51.2-22.923-51.2-51.2v-665.6c0-28.277 22.923-51.2 51.2-51.2h337.408l87.552-87.552c9.255-9.201 22.011-14.889 36.096-14.889s26.842 5.687 36.098 14.891l87.55 87.55h336.896c28.277 0 51.2 22.923 51.2 51.2v665.6c0 28.277-22.923 51.2-51.2 51.2zM409.6 217.6h-307.2v563.2h286.208l72.192-72.192v-521.216l-14.848 14.848c-9.251 9.433-22.111 15.299-36.34 15.36zM921.6 217.6h-307.2c-0.088 0.001-0.192 0.001-0.296 0.001-14.065 0-26.806-5.671-36.059-14.852l-14.845-14.845v520.704l72.192 72.192h286.208z" />
<glyph unicode="&#xe91d;" glyph-name="ico-scegli-app" d="M512 964.096c-282.763-0.009-511.984-229.236-511.984-512 0-282.77 229.23-512 512-512 281.33 0 509.664 226.901 511.982 507.683 0.003 0.679 0.004 1.221 0.004 1.763 0 283.284-228.921 513.101-511.864 514.553zM512 30.208c-231.871 0-419.84 187.969-419.84 419.84s187.969 419.84 419.84 419.84c231.871 0 419.84-187.969 419.84-419.84-0.291-231.754-188.086-419.549-419.812-419.84zM658.432 586.752l-207.872-210.432-96.768 95.232c-43.52 42.496-110.080-24.064-66.56-66.56l130.56-128c8.576-8.387 20.324-13.561 33.28-13.561s24.704 5.175 33.289 13.57l240.631 243.191c7.729 8.365 12.469 19.592 12.469 31.925 0 26.015-21.089 47.104-47.104 47.104-12.334 0-23.56-4.74-31.957-12.498z" />
<glyph unicode="&#xe91e;" glyph-name="ico-scrivi" d="M963.584 899.584c-37.144 37.571-88.687 60.838-145.664 60.838s-108.52-23.267-145.645-60.819l-584.211-584.211c-6.284-6.327-10.927-14.292-13.234-23.196l-74.83-292.708c-1.3-4.293-2.048-9.227-2.048-14.336 0-28.277 22.923-51.2 51.2-51.2 5.109 0 10.043 0.748 14.698 2.141l291.478 73.123c9.261 2.385 17.225 7.028 23.555 13.315l584.701 585.725c37.571 37.144 60.838 88.687 60.838 145.664s-23.267 108.52-60.819 145.645zM362.496 225.792l382.464 382.464 37.376-36.864-409.6-409.6zM289.792 298.496l-61.952 12.288 409.6 409.6 37.376-37.376zM161.792 219.648l102.4-19.968 20.48-102.4-161.792-40.448zM707.584 790.528l36.864 36.864c19.042 18.056 44.832 29.16 73.216 29.16s54.174-11.104 73.264-29.205l-0.048 0.045c18.17-18.992 29.355-44.798 29.355-73.216s-11.185-54.224-29.392-73.255l-36.827-36.825z" />
<glyph unicode="&#xe91f;" glyph-name="ico-search" d="M771.072 778.24c-74.074 73.831-176.276 119.48-289.141 119.48-226.216 0-409.6-183.384-409.6-409.6s183.384-409.6 409.6-409.6c94.647 0 181.797 32.102 251.154 86.012l146.531-148.148 72.192 73.216-146.944 148.48c53.526 68.551 85.825 155.945 85.825 250.882 0 112.933-45.704 215.191-119.625 289.286zM698.88 271.36c-55.58-55.52-132.332-89.856-217.102-89.856-169.662 0-307.2 137.538-307.2 307.2s137.538 307.2 307.2 307.2c84.771 0 161.522-34.336 217.105-89.859 55.509-55.576 89.839-132.321 89.839-217.085 0-85.018-34.537-161.97-90.345-217.591z" />
<glyph unicode="&#xe920;" glyph-name="ico-share" d="M806.912 294.4c-40.84-0.238-78.406-14.063-108.455-37.177l-346.201 161.081c0.304 4.44 0.477 9.624 0.477 14.848s-0.173 10.408-0.514 15.546c0.318 3.741 0.479 8.927 0.479 14.15s-0.16 10.41-0.476 15.554l345.123 162.11c29.561-23.621 67.284-38.162 108.377-38.91 98.571-0.002 178.343 79.77 178.343 178.174s-79.772 178.176-178.176 178.176c-98.404 0-178.176-79.772-178.176-178.176-0.281-4.438-0.442-9.624-0.442-14.848s0.16-10.41 0.476-15.554l-341.539-160.062c-29.626 22.801-67.192 36.625-107.977 36.864-99.025 0-179.255-80.23-179.255-179.2s80.231-179.2 179.2-179.2c40.84 0.238 78.406 14.063 108.455 37.177l344.665-163.129c-0.304-4.44-0.478-9.624-0.478-14.848s0.173-10.408 0.515-15.545c2.265-95.921 81.134-173.365 178.091-173.365 98.404 0 178.176 79.772 178.176 178.176s-79.772 178.176-178.176 178.176c-0.883 0-1.765-0.006-2.646-0.019z" />
<glyph unicode="&#xe921;" glyph-name="ico-sicurezza" d="M665.6 550.4c0.001 0.209 0.002 0.456 0.002 0.704 0 84.831-68.769 153.6-153.6 153.6s-153.6-68.769-153.6-153.6c0-59.016 33.283-110.259 82.103-135.98l-30.905-223.123h204.8l-31.744 222.72c49.456 26.016 82.666 76.938 82.944 135.642zM512-64c-282.77 0-512 229.23-512 512s229.23 512 512 512c282.77 0 512-229.23 512-512s-229.23-512-512-512zM512 857.6c-226.216 0-409.6-183.384-409.6-409.6s183.384-409.6 409.6-409.6c226.216 0 409.6 183.384 409.6 409.6v0c0 226.216-183.384 409.6-409.6 409.6z" />
<glyph unicode="&#xe928;" glyph-name="ico-esci" d="M379.392 183.296v-37.888h-303.616v605.184h303.616v-37.888h75.776v113.664h-455.168v-756.736h455.168v113.664zM644.608 712.704v37.888h303.616v-605.184h-303.616v37.888h-75.776v-113.664h455.168v756.736h-455.168v-113.664zM552.96 474.624h-325.632v-77.824h325.632l-87.040-86.528 51.2-51.2 178.688 178.176-176.128 177.664-51.2-51.2z" />
</font>
</defs>
</svg>
